<svg width="43" height="43" viewBox="0 0 43 43" fill="none" xmlns="http://www.w3.org/2000/svg">
<circle cx="6.5" cy="36.5" r="6.5" fill="white"/>
<path d="M30.233 29.4162C31.5166 27.5646 32.2327 25.379 32.2934 23.1268C32.3541 20.8746 31.757 18.6535 30.575 16.7355L35.0263 12.2841C36.5092 12.8116 38.1353 12.7684 39.5881 12.163C40.7103 11.691 40.9169 10.168 40.0565 9.30765L34.1713 3.42418C33.3092 2.56206 31.7844 2.77046 31.3124 3.89621C30.6962 5.37491 30.6624 7.03204 31.218 8.53459L26.7951 12.9574C24.8771 11.7754 22.656 11.1782 20.4038 11.239C18.1516 11.2997 15.966 12.0158 14.1144 13.2994C13.222 13.9211 13.149 15.2303 13.9185 15.9998L27.5326 29.6139C28.3021 30.3816 29.6095 30.3086 30.233 29.4162Z" fill="#F2696A"/>
<path d="M6.88965 36.6392L18.8561 20.8965L22.6341 24.6745L6.88965 36.6392Z" fill="#E2E2E2"/>
<path d="M40.6836 8.67712L34.8002 2.79365C34.4844 2.47818 34.0956 2.2455 33.6684 2.11624C33.2412 1.98698 32.7886 1.96514 32.3509 2.05265C31.4977 2.22009 30.8191 2.76693 30.4895 3.55068C29.8591 5.05232 29.7574 6.72356 30.201 8.29059L26.6474 11.8442C24.6198 10.7434 22.326 10.2282 20.0225 10.3563C17.7189 10.4843 15.4964 11.2505 13.6033 12.5691C13.2918 12.787 13.0321 13.0706 12.8425 13.4C12.6528 13.7293 12.538 14.0964 12.506 14.4751C12.4348 15.2766 12.7198 16.0622 13.2862 16.6286L17.6574 20.9998L6.17902 36.103C6.07963 36.2353 6.01896 36.3925 6.00377 36.5573C5.98858 36.722 6.01948 36.8877 6.09302 37.0359C6.16656 37.1841 6.27984 37.3089 6.42022 37.3964C6.56059 37.484 6.72253 37.5308 6.88796 37.5316C7.0828 37.5311 7.2722 37.4673 7.42768 37.3499L22.5309 25.8715L26.9021 30.2427C27.1818 30.5228 27.5197 30.738 27.8919 30.8728C28.2641 31.0076 28.6614 31.0589 29.0556 31.0229C29.4344 30.9911 29.8014 30.8762 30.1308 30.6866C30.4602 30.497 30.7438 30.2372 30.9616 29.9257C32.2798 28.0324 33.0458 25.8099 33.1738 23.5064C33.3018 21.2029 32.7869 18.9092 31.6865 16.8816L35.274 13.2941C36.8177 13.7132 38.4573 13.6041 39.9319 12.9842C40.7139 12.6564 41.259 11.9796 41.4264 11.1263C41.5135 10.6885 41.4913 10.2359 41.3618 9.8087C41.2322 9.38148 40.9993 8.99281 40.6836 8.67712ZM11.5513 31.9776L18.931 22.2681L21.2609 24.5979L11.5513 31.9776ZM39.2426 11.3419C37.9942 11.8634 36.5962 11.9003 35.3221 11.4452C35.1636 11.3886 34.9924 11.3783 34.8284 11.4155C34.6643 11.4528 34.5143 11.536 34.3958 11.6554L29.9445 16.1067C29.8027 16.2485 29.7129 16.4339 29.6897 16.6331C29.6664 16.8322 29.711 17.0333 29.8162 17.204C30.9113 18.9729 31.465 21.0237 31.4089 23.1034C31.3529 25.1832 30.6897 27.2011 29.5009 28.9086C29.4318 29.0061 29.342 29.0871 29.2379 29.1459C29.1338 29.2048 29.0181 29.2399 28.8989 29.2488C28.764 29.2616 28.6279 29.2445 28.5004 29.1986C28.373 29.1527 28.2572 29.0792 28.1614 28.9834L23.3342 24.1562C23.3075 24.1206 23.2951 24.0778 23.263 24.0457L19.485 20.2677C19.4529 20.2357 19.4101 20.2232 19.3745 20.1965L14.5473 15.3693C14.4517 15.2734 14.3783 15.1576 14.3324 15.0301C14.2866 14.9027 14.2693 14.7667 14.2819 14.6318C14.2907 14.5126 14.3258 14.3968 14.3846 14.2927C14.4434 14.1886 14.5245 14.0988 14.6221 14.0298C16.4074 12.7845 18.532 12.1173 20.7087 12.1185C22.6502 12.1185 24.5989 12.6493 26.325 13.7145C26.4957 13.8194 26.6968 13.8638 26.8958 13.8406C27.0949 13.8173 27.2803 13.7277 27.4222 13.5862L31.8451 9.16518C31.9653 9.04502 32.0487 8.89294 32.0853 8.72691C32.1219 8.56089 32.1103 8.38785 32.0517 8.22824C31.5709 6.93764 31.5989 5.51251 32.1301 4.24181C32.1797 4.12735 32.2573 4.02713 32.3556 3.95029C32.4539 3.87345 32.5699 3.82241 32.6929 3.80184C32.8439 3.77183 32.9999 3.77919 33.1474 3.82328C33.2948 3.86736 33.4293 3.94684 33.539 4.05477L39.4225 9.93824C39.5302 10.0481 39.6097 10.1825 39.6541 10.3299C39.6984 10.4773 39.7064 10.6332 39.6772 10.7843C39.6574 10.9063 39.6072 11.0213 39.5313 11.1187C39.4553 11.2162 39.356 11.2929 39.2426 11.3419Z" fill="#1A4875"/>
</svg>
