<svg width="39" height="39" viewBox="0 0 39 39" fill="none" xmlns="http://www.w3.org/2000/svg">
<path d="M26.233 29.4162C27.5166 27.5646 28.2327 25.379 28.2934 23.1268C28.3541 20.8746 27.757 18.6535 26.575 16.7355L31.0263 12.2841C32.5092 12.8116 34.1353 12.7684 35.5881 12.163C36.7103 11.691 36.9169 10.168 36.0565 9.30765L30.1713 3.42418C29.3092 2.56206 27.7844 2.77046 27.3124 3.89621C26.6962 5.37491 26.6624 7.03204 27.218 8.53459L22.7951 12.9574C20.8771 11.7754 18.656 11.1782 16.4038 11.239C14.1516 11.2997 11.966 12.0158 10.1144 13.2994C9.22202 13.9211 9.14899 15.2303 9.91849 15.9998L23.5326 29.6139C24.3021 30.3816 25.6095 30.3086 26.233 29.4162Z" fill="#F2696A"/>
<path d="M2.88965 36.6392L14.8561 20.8965L18.6341 24.6745L2.88965 36.6392Z" fill="#E2E2E2"/>
<path d="M36.6836 8.67712L30.8002 2.79365C30.4844 2.47818 30.0956 2.2455 29.6684 2.11624C29.2412 1.98698 28.7886 1.96514 28.3509 2.05265C27.4977 2.22009 26.8191 2.76693 26.4895 3.55068C25.8591 5.05232 25.7574 6.72356 26.201 8.29059L22.6474 11.8442C20.6198 10.7434 18.326 10.2283 16.0225 10.3563C13.7189 10.4843 11.4964 11.2505 9.60327 12.5691C9.29182 12.787 9.03208 13.0706 8.84247 13.4C8.65285 13.7293 8.53799 14.0964 8.50602 14.4751C8.43477 15.2766 8.71977 16.0622 9.28621 16.6286L13.6574 20.9998L2.17902 36.103C2.07963 36.2353 2.01896 36.3925 2.00377 36.5573C1.98858 36.722 2.01948 36.8877 2.09302 37.0359C2.16656 37.1841 2.27984 37.3089 2.42022 37.3964C2.56059 37.484 2.72253 37.5308 2.88796 37.5316C3.0828 37.5311 3.2722 37.4673 3.42768 37.3499L18.5309 25.8715L22.9021 30.2427C23.1818 30.5228 23.5197 30.738 23.8919 30.8728C24.2641 31.0076 24.6614 31.0589 25.0556 31.0229C25.4344 30.9911 25.8014 30.8762 26.1308 30.6866C26.4602 30.497 26.7438 30.2372 26.9616 29.9257C28.2798 28.0324 29.0458 25.8099 29.1738 23.5064C29.3018 21.2029 28.7869 18.9092 27.6865 16.8816L31.274 13.2941C32.8177 13.7132 34.4573 13.6041 35.9319 12.9842C36.7139 12.6564 37.259 11.9796 37.4264 11.1263C37.5135 10.6885 37.4913 10.2359 37.3618 9.8087C37.2322 9.38148 36.9993 8.99281 36.6836 8.67712ZM7.55127 31.9776L14.931 22.2681L17.2609 24.5979L7.55127 31.9776ZM35.2426 11.3419C33.9942 11.8634 32.5962 11.9003 31.3221 11.4452C31.1636 11.3886 30.9924 11.3783 30.8284 11.4155C30.6643 11.4528 30.5143 11.536 30.3958 11.6554L25.9445 16.1067C25.8027 16.2485 25.7129 16.4339 25.6897 16.6331C25.6664 16.8322 25.711 17.0333 25.8162 17.204C26.9113 18.9729 27.465 21.0237 27.4089 23.1034C27.3529 25.1832 26.6897 27.2011 25.5009 28.9086C25.4318 29.0061 25.342 29.0871 25.2379 29.1459C25.1338 29.2048 25.0181 29.2399 24.8989 29.2488C24.764 29.2616 24.6279 29.2445 24.5004 29.1986C24.373 29.1527 24.2572 29.0792 24.1614 28.9834L19.3342 24.1562C19.3075 24.1206 19.2951 24.0778 19.263 24.0457L15.485 20.2677C15.4529 20.2357 15.4101 20.2232 15.3745 20.1965L10.5473 15.3693C10.4517 15.2734 10.3783 15.1576 10.3324 15.0301C10.2866 14.9027 10.2693 14.7667 10.2819 14.6318C10.2907 14.5126 10.3258 14.3968 10.3846 14.2927C10.4434 14.1886 10.5245 14.0988 10.6221 14.0298C12.4074 12.7845 14.532 12.1173 16.7087 12.1185C18.6502 12.1185 20.5989 12.6493 22.325 13.7145C22.4957 13.8194 22.6968 13.8638 22.8958 13.8406C23.0949 13.8173 23.2803 13.7277 23.4222 13.5862L27.8451 9.16518C27.9653 9.04502 28.0487 8.89294 28.0853 8.72691C28.1219 8.56089 28.1103 8.38785 28.0517 8.22824C27.5709 6.93765 27.5989 5.51251 28.1301 4.24181C28.1797 4.12735 28.2573 4.02713 28.3556 3.95029C28.4539 3.87345 28.5699 3.82241 28.6929 3.80184C28.8439 3.77183 28.9999 3.77919 29.1474 3.82328C29.2948 3.86736 29.4293 3.94684 29.539 4.05477L35.4225 9.93824C35.5302 10.0481 35.6097 10.1825 35.6541 10.3299C35.6984 10.4773 35.7064 10.6332 35.6772 10.7843C35.6574 10.9063 35.6072 11.0213 35.5313 11.1187C35.4553 11.2162 35.356 11.2929 35.2426 11.3419Z" fill="#1A4875"/>
</svg>
